<svg xmlns="http://www.w3.org/2000/svg" width="172.345" height="140" viewBox="0 0 172.345 140">
  <g id="Logo_Blender" transform="translate(-15.125 -10.757)">
    <g id="blender_logo_no_socket" transform="translate(15.125 10.757)">
      <g id="Group_13" data-name="Group 13" transform="translate(0)">
        <g id="Group_2" data-name="Group 2" transform="translate(67.67 38.538)">
          <path id="Path_15" data-name="Path 15" d="M5259.826-7323.5a39.658,39.658,0,0,1,14.4-28.079,47.92,47.92,0,0,1,30.971-11.077,47.939,47.939,0,0,1,30.964,11.077,39.7,39.7,0,0,1,14.4,28.066,38.986,38.986,0,0,1-12.12,30.141,47.456,47.456,0,0,1-33.24,13.126,47.49,47.49,0,0,1-33.259-13.126A38.925,38.925,0,0,1,5259.826-7323.5Z" transform="translate(-5259.768 7362.66)" fill="#fff"/>
        </g>
        <g id="Group_3" data-name="Group 3" transform="translate(86.615 58.625)">
          <path id="Path_16" data-name="Path 16" d="M2698.849-3757.735a20.348,20.348,0,0,1,7.386-14.407,24.59,24.59,0,0,1,15.891-5.683,24.6,24.6,0,0,1,15.888,5.683,20.369,20.369,0,0,1,7.386,14.4,20,20,0,0,1-6.218,15.465,24.35,24.35,0,0,1-17.056,6.735,24.365,24.365,0,0,1-17.065-6.735A19.97,19.97,0,0,1,2698.849-3757.735Z" transform="translate(-2698.819 3777.825)" fill="#265787"/>
        </g>
        <g id="Group_4" data-name="Group 4">
          <path id="Path_17" data-name="Path 17" d="M2423.628-3901.607a42.513,42.513,0,0,0,1.833,10.034,52.932,52.932,0,0,0,11.435,19.8,59.086,59.086,0,0,0,20.015,14.373,64.328,64.328,0,0,0,26.279,5.459,64.383,64.383,0,0,0,26.264-5.551,59.5,59.5,0,0,0,20-14.43,53.382,53.382,0,0,0,11.433-19.838,50.15,50.15,0,0,0,2.149-11.074,50.492,50.492,0,0,0-.356-11,51.129,51.129,0,0,0-7.292-19.957,55.682,55.682,0,0,0-13.3-14.667l.012-.009-53.839-41.339c-.049-.036-.088-.076-.14-.109-3.532-2.711-9.472-2.7-13.357.015-3.927,2.748-4.378,7.292-.881,10.159l-.015.015,22.455,18.26-68.442.073h-.091c-5.657.006-11.1,3.718-12.172,8.408-1.106,4.778,2.736,8.742,8.618,8.763l-.009.021,34.691-.067-61.9,47.516c-.079.058-.164.118-.237.176-5.84,4.471-7.727,11.907-4.049,16.613,3.733,4.785,11.67,4.794,17.57.027l33.785-27.65A52.878,52.878,0,0,0,2423.628-3901.607Zm86.815,12.5a38.038,38.038,0,0,1-27.252,11.135,37.859,37.859,0,0,1-27.267-11.047,32.413,32.413,0,0,1-7.441-11.649,30.24,30.24,0,0,1-1.709-13.016,30.739,30.739,0,0,1,3.73-12.253,33.776,33.776,0,0,1,8.281-9.846,38.6,38.6,0,0,1,24.392-8.511,38.522,38.522,0,0,1,24.4,8.441,33.628,33.628,0,0,1,8.271,9.816,30.739,30.739,0,0,1,3.746,12.247,30.323,30.323,0,0,1-1.714,13.008A32.57,32.57,0,0,1,2510.443-3889.107Z" transform="translate(-2370.84 3991.939)" fill="#ea7600"/>
        </g>
      </g>
    </g>
  </g>
</svg>
