<svg xmlns="http://www.w3.org/2000/svg" width="140" height="140" viewBox="0 0 140 140">
  <defs>
    <style>
      .cls-1 {
        fill: #553a7d;
      }
    </style>
  </defs>
  <path id="Icon_awesome-bootstrap" data-name="Icon awesome-bootstrap" class="cls-1" d="M91.344,89.728c0,13.253-12.412,12.947-13.725,12.947H52.341V77.147H77.619c13.3,0,13.725,9.969,13.725,12.581ZM75.672,66.875c.209,0,12.012.313,12.012-11.347,0-4.85-1.1-11.209-12.012-11.209H52.341V66.875ZM140,25.584v93.331a23.4,23.4,0,0,1-23.334,23.334H23.334A23.4,23.4,0,0,1,0,118.916V25.584A23.4,23.4,0,0,1,23.334,2.25h93.331A23.4,23.4,0,0,1,140,25.584Zm-34.359,66c0-6.741-2.078-18.216-15.328-21.047v-.228c7.159-3.056,11.669-8.828,11.669-17.387,0-2.187.625-20.244-24.25-20.244H38.044v81.666c40.072,0,43.709.525,51.125-1.784,4.441-1.381,16.472-5.619,16.472-20.975Z" transform="translate(0 -2.25)"/>
</svg>
