<svg xmlns="http://www.w3.org/2000/svg" width="1920" height="960" viewBox="0 0 1920 960"><defs><style>.a{fill:#0d0d0d;}.b{fill:#231f20;}.c,.h{fill:#85a693;}.d{fill:#b4c0b6;}.e{fill:#181818;}.f,.g,.i{fill:#fff;}.f{font-size:35px;font-family:CenturyGothic, Century Gothic;}.g{font-size:160px;font-family:GillSansMT, Gill Sans MT;}.h{font-size:190px;font-family:GillSansMT-Bold, Gill Sans MT;font-weight:700;}</style></defs><rect class="a" width="1920" height="960"/><g transform="translate(-8)"><rect class="b" width="119" height="125" rx="1" transform="translate(26 317.472)"/><rect class="b" width="140" height="111" rx="1" transform="translate(1757 549.399)"/><rect class="c" width="40" height="40" rx="3" transform="translate(1103 690.026)"/><rect class="c" width="446" height="25" rx="2" transform="translate(497 704.979)"/><circle class="d" cx="50" cy="50" r="50" transform="translate(1827 856)"/><circle class="e" cx="250" cy="250" r="250" transform="translate(720 230)"/><circle class="d" cx="25" cy="25" r="25" transform="translate(8 87)"/><circle class="d" cx="13" cy="13" r="13" transform="translate(143 849)"/><circle class="c" cx="16" cy="16" r="16" transform="translate(505 23)"/><rect class="c" width="260" height="30" rx="2" transform="translate(1528.233 174.895) rotate(-14)"/><rect class="c" width="108" height="64" rx="2" transform="translate(356.113 230.495) rotate(-90)"/><rect class="d" width="53" height="190" rx="2" transform="translate(331.113 114.495) rotate(-90)"/><rect class="e" width="31" height="115" rx="2" transform="translate(85.113 913.495) rotate(-90)"/><circle class="e" cx="29" cy="29" r="29" transform="translate(1592 88)"/><text class="f" transform="translate(523 713.028)"><tspan x="0" y="0">I like make scripts into action. </tspan></text><text class="g" transform="translate(546 498.186)"><tspan x="-501.328" y="0">K</tspan><tspan class="c" y="0">YLE DENVER</tspan></text><text class="h" transform="translate(1416 616.608)"><tspan x="-446.147" y="0">MOREN</tspan><tspan class="i" y="0">A</tspan></text><path class="d" d="M48.136,1.481a1,1,0,0,1,1.728,0L97.123,82.5a1,1,0,0,1-.864,1.5H1.741a1,1,0,0,1-.864-1.5Z" transform="translate(407 194)"/><path class="c" d="M34.077,2.215a1,1,0,0,1,1.846,0l33.5,80.4A1,1,0,0,1,68.5,84H1.5a1,1,0,0,1-.923-1.385Z" transform="translate(199.39 789.839) rotate(16)"/><path class="b" d="M74.106,1.789a1,1,0,0,1,1.789,0l73.382,146.764a1,1,0,0,1-.894,1.447H1.618a1,1,0,0,1-.894-1.447Z" transform="translate(1650 158)"/></g></svg>