<svg xmlns="http://www.w3.org/2000/svg" width="140" height="140" viewBox="0 0 140 140">
  <defs>
    <style>
      .cls-1 {
        fill: #c76395;
      }
    </style>
  </defs>
  <path id="Icon_simple-sass" data-name="Icon simple-sass" class="cls-1" d="M70,0A70,70,0,1,1,0,70,70,70,0,0,1,70,0ZM56.087,93.322a17.89,17.89,0,0,1-.14,10.453l-.379,1.05c-.14.356-.3.7-.455,1.027a19.624,19.624,0,0,1-3.237,4.725c-4.072,4.427-9.753,6.108-12.192,4.7-2.625-1.528-1.318-7.787,3.407-12.775a47.623,47.623,0,0,1,12.367-8.8v-.018l.63-.356ZM113.9,29.966c-3.162-12.443-23.783-16.532-43.3-9.6C59,24.494,46.433,30.975,37.4,39.428,26.647,49.467,24.938,58.217,25.643,61.874c2.491,12.9,20.166,21.333,27.434,27.592V89.5c-2.141,1.05-17.827,8.919-21.5,17.062-3.937,8.575.613,14.706,3.587,15.488,9.188,2.543,18.638-2.1,23.712-9.619,4.9-7.356,4.468-16.806,2.357-21.443a27.218,27.218,0,0,1,10.675-.607c12.256,1.4,14.706,9.1,14.175,12.25a8.411,8.411,0,0,1-3.932,5.507c-.875.531-1.138.7-1.056,1.056.088.525.531.525,1.225.437a9.706,9.706,0,0,0,6.656-8.581c.262-7.525-6.918-15.919-19.688-15.75-5.25.093-8.581.531-10.937,1.493a2.113,2.113,0,0,0-.612-.612c-7.875-8.487-22.488-14.437-21.875-25.725.175-4.112,1.662-14.957,28-28.082,21.612-10.768,38.856-7.788,41.831-1.225,4.276,9.357-9.193,26.775-31.681,29.307-8.575.962-13.038-2.357-14.181-3.587-1.219-1.313-1.394-1.4-1.832-1.132-.7.35-.263,1.487,0,2.188.7,1.75,3.413,4.813,8.143,6.388,4.107,1.312,14.175,2.094,26.25-2.625,13.557-5.244,24.144-19.863,21.082-32.113l.426.391Z"/>
</svg>
